<?xml version="1.0" encoding="iso-8859-1"?>
<!-- Generator: Adobe Illustrator 19.0.0, SVG Export Plug-In . SVG Version: 6.00 Build 0)  -->
<!-- License: CC0. Made by SVG Repo: https://www.svgrepo.com/svg/280348/love -->
<svg version="1.1" id="Layer_1" xmlns="http://www.w3.org/2000/svg" xmlns:xlink="http://www.w3.org/1999/xlink" x="0px" y="0px"
	 viewBox="0 0 512 512" style="enable-background:new 0 0 512 512;" xml:space="preserve">
<g>
	<path style="fill:#D23C69;" d="M171.372,332.167c12.157,0,22.012-9.855,22.012-22.012c0-5.809-5.023-23.646-10.27-40.696
		l-23.731,0.8c-5.157,16.805-10.024,34.178-10.024,39.896C149.36,322.312,159.215,332.167,171.372,332.167z"/>
	<path style="fill:#D23C69;" d="M113.468,247.988c5.03,2.905,22.989,7.474,40.378,11.454l11.172-20.952
		c-11.975-12.869-24.587-25.769-29.538-28.629c-10.529-6.078-23.991-2.471-30.069,8.058
		C99.332,228.446,102.938,241.91,113.468,247.988z"/>
	<path style="fill:#D23C69;" d="M188.897,259.442c17.39-3.981,35.348-8.55,40.378-11.454c10.529-6.078,14.135-19.542,8.058-30.069
		c-6.078-10.528-19.541-14.135-30.069-8.058c-4.952,2.859-17.565,15.76-29.538,28.629L188.897,259.442z"/>
</g>
<g>
	<path style="fill:#FF507D;" d="M171.372,179.836c-12.157,0-22.012,9.855-22.012,22.012c0,5.809,5.023,23.646,10.27,40.696
		l23.731-0.8c5.157-16.805,10.024-34.178,10.024-39.896C193.384,189.691,183.529,179.836,171.372,179.836z"/>
	<path style="fill:#FF507D;" d="M229.275,264.014c-5.03-2.905-22.989-7.474-40.378-11.454l-11.172,20.952
		c11.975,12.869,24.587,25.769,29.538,28.629c10.529,6.078,23.991,2.471,30.069-8.057
		C243.412,283.556,239.805,270.093,229.275,264.014z"/>
	<path style="fill:#FF507D;" d="M153.846,252.56c-17.39,3.981-35.348,8.55-40.378,11.454c-10.529,6.078-14.135,19.542-8.058,30.069
		c6.078,10.528,19.541,14.135,30.069,8.057c4.952-2.859,17.565-15.76,29.538-28.629L153.846,252.56z"/>
</g>
<circle style="fill:#FFDC64;" cx="171.372" cy="256" r="22.405"/>
<g>
	<path style="fill:#FFC850;" d="M86.744,334.282H19.041C8.545,334.282,0,325.741,0,315.241V188.299
		c0-5.842,4.736-10.579,10.579-10.579s10.579,4.736,10.579,10.579v124.826h65.587c5.843,0,10.579,4.736,10.579,10.579
		S92.586,334.282,86.744,334.282z"/>
	<path style="fill:#FFC850;" d="M326.297,334.282h-5.19c-7.893,0-15.057-4.962-17.827-12.351l-48.719-129.918
		c-2.058-5.471,0.719-11.571,6.191-13.62c5.471-2.049,11.571,0.724,13.611,6.191l48.206,128.542h2.265l48.206-128.542
		c2.05-5.484,8.166-8.235,13.611-6.191c5.471,2.05,8.248,8.149,6.191,13.62l-48.719,129.914
		C341.356,329.32,334.19,334.282,326.297,334.282z"/>
	<path style="fill:#FFC850;" d="M501.421,313.125h-74.05V266.58h31.736c5.843,0,10.579-4.736,10.579-10.579
		c0-5.842-4.736-10.579-10.579-10.579h-31.736v-46.545h74.05c5.842,0,10.578-4.736,10.578-10.579
		c0-5.842-4.736-10.579-10.578-10.579h-76.165c-10.496,0-19.041,8.541-19.041,19.041v118.479c0,10.5,8.545,19.041,19.041,19.041
		h76.165c5.842,0,10.578-4.736,10.578-10.579S507.264,313.125,501.421,313.125z"/>
</g>
</svg>
