<?xml version="1.0" encoding="UTF-8"?><svg id="a" xmlns="http://www.w3.org/2000/svg" width="192" height="192" viewBox="0 0 192 192"><path id="b" d="M156.138,21.077h-37.247c-10.97,0-15.572,8.894-15.572,19.863v27.686c0,4.838-3.988,6.949-7.319,6.949-3.384,0-7.317-3.212-7.317-6.949v-27.686c0-10.969-4.603-19.863-15.572-19.863H25.931c-5.485,0-9.931,4.447-9.931,9.932v42.81c0,10.97,8.892,19.969,19.862,19.969h112.996c5.496,0,7.169,4.109,7.169,7.295,0,4.141-3.246,7.664-7.169,7.664H35.862c-10.97,0-19.862,8.949-19.862,19.919v32.327c0,5.485,4.446,9.931,9.931,9.931h130.207c10.97,0,19.862-8.892,19.862-19.862V40.941c0-10.969-8.892-19.863-19.862-19.863" fill="#21f409"/></svg>